<svg width="14" height="14" viewBox="0 0 14 14" fill="none" xmlns="http://www.w3.org/2000/svg">
<path d="M6.66667 7.6L8.6 9.53333C8.72222 9.65555 8.87778 9.71667 9.06667 9.71667C9.25556 9.71667 9.41111 9.65555 9.53333 9.53333C9.65556 9.41111 9.71667 9.25556 9.71667 9.06667C9.71667 8.87778 9.65556 8.72222 9.53333 8.6L7.6 6.66667L9.53333 4.73333C9.65556 4.61111 9.71667 4.45555 9.71667 4.26667C9.71667 4.07778 9.65556 3.92222 9.53333 3.8C9.41111 3.67778 9.25556 3.61667 9.06667 3.61667C8.87778 3.61667 8.72222 3.67778 8.6 3.8L6.66667 5.73333L4.73333 3.8C4.61111 3.67778 4.45556 3.61667 4.26667 3.61667C4.07778 3.61667 3.92222 3.67778 3.8 3.8C3.67778 3.92222 3.61667 4.07778 3.61667 4.26667C3.61667 4.45555 3.67778 4.61111 3.8 4.73333L5.73333 6.66667L3.8 8.6C3.67778 8.72222 3.61667 8.87778 3.61667 9.06667C3.61667 9.25556 3.67778 9.41111 3.8 9.53333C3.92222 9.65555 4.07778 9.71667 4.26667 9.71667C4.45556 9.71667 4.61111 9.65555 4.73333 9.53333L6.66667 7.6ZM6.66667 13.3333C5.74445 13.3333 4.87778 13.1582 4.06667 12.808C3.25556 12.4578 2.55 11.9829 1.95 11.3833C1.35 10.7838 0.875112 10.0782 0.525334 9.26667C0.175556 8.45511 0.000445288 7.58844 8.43882e-07 6.66667C-0.000443601 5.74489 0.174668 4.87822 0.525334 4.06667C0.876001 3.25511 1.35089 2.54956 1.95 1.95C2.54911 1.35044 3.25467 0.875556 4.06667 0.525333C4.87867 0.175111 5.74533 0 6.66667 0C7.588 0 8.45467 0.175111 9.26667 0.525333C10.0787 0.875556 10.7842 1.35044 11.3833 1.95C11.9824 2.54956 12.4576 3.25511 12.8087 4.06667C13.1598 4.87822 13.3347 5.74489 13.3333 6.66667C13.332 7.58844 13.1569 8.45511 12.808 9.26667C12.4591 10.0782 11.9842 10.7838 11.3833 11.3833C10.7824 11.9829 10.0769 12.458 9.26667 12.8087C8.45644 13.1593 7.58978 13.3342 6.66667 13.3333Z" fill="#989898"/>
</svg>
