<svg width="22" height="22" viewBox="0 0 22 22" fill="none" xmlns="http://www.w3.org/2000/svg">
<path d="M11 9V13.2601H16.9201C16.6601 14.6301 15.88 15.7902 14.71 16.5702L18.2801 19.3402C20.3601 17.4203 21.5601 14.6002 21.5601 11.2501C21.5601 10.4701 21.4901 9.72007 21.3601 9.00012L11 9Z" fill="white"/>
<path d="M4.83497 13.0938L4.02978 13.7101L1.17969 15.9301C2.98971 19.5201 6.69951 22.0002 10.9995 22.0002C13.9695 22.0002 16.4595 21.0202 18.2796 19.3402L14.7096 16.5701C13.7295 17.2301 12.4795 17.6302 10.9995 17.6302C8.13951 17.6302 5.70954 15.7002 4.83946 13.1001L4.83497 13.0938Z" fill="white"/>
<path d="M1.17994 6.07031C0.429963 7.55028 0 9.22033 0 11.0003C0 12.7803 0.429963 14.4504 1.17994 15.9304C1.17994 15.9403 4.84006 13.0903 4.84006 13.0903C4.62006 12.4303 4.49002 11.7303 4.49002 11.0002C4.49002 10.2701 4.62006 9.57014 4.84006 8.91013L1.17994 6.07031Z" fill="white"/>
<path d="M10.9998 4.38007C12.6198 4.38007 14.0598 4.94007 15.2098 6.0201L18.3599 2.87009C16.4498 1.09009 13.9699 0 10.9998 0C6.69973 0 2.98971 2.47004 1.17969 6.07011L4.8397 8.91017C5.70967 6.31009 8.13974 4.38007 10.9998 4.38007Z" fill="white"/>
</svg>
