<svg width="20" height="20" viewBox="0 0 20 20" fill="none" xmlns="http://www.w3.org/2000/svg">
<path d="M16.6654 9.99967H8.7487M14.9987 12.4997L17.4987 9.99967L14.9987 7.49967M10.832 5.83301V4.99967C10.832 4.55765 10.6564 4.13372 10.3439 3.82116C10.0313 3.5086 9.60739 3.33301 9.16536 3.33301H4.9987C4.55667 3.33301 4.13275 3.5086 3.82019 3.82116C3.50763 4.13372 3.33203 4.55765 3.33203 4.99967V14.9997C3.33203 15.4417 3.50763 15.8656 3.82019 16.1782C4.13275 16.4907 4.55667 16.6663 4.9987 16.6663H9.16536C9.60739 16.6663 10.0313 16.4907 10.3439 16.1782C10.6564 15.8656 10.832 15.4417 10.832 14.9997V14.1663" stroke="#0B0B0B" stroke-width="1.8" stroke-linecap="round" stroke-linejoin="round"/>
</svg>
