<svg width="20" height="20" viewBox="0 0 20 20" fill="none" xmlns="http://www.w3.org/2000/svg">
<path fill-rule="evenodd" clip-rule="evenodd" d="M16.7107 14.5036L16.9231 15.4726C17.1245 16.3104 16.9257 17.1908 16.381 17.8732C15.8363 18.5557 15.0027 18.969 14.1078 19.0003H5.89216C4.99727 18.969 4.16365 18.5557 3.61899 17.8732C3.07433 17.1908 2.87552 16.3104 3.07687 15.4726L3.28935 14.5036C3.53372 13.1918 4.70817 12.2278 6.09578 12.2H13.9042C15.2918 12.2278 16.4663 13.1918 16.7107 14.5036ZM14.1065 17.7168C14.5561 17.7118 14.9791 17.5118 15.2574 17.1727V17.1812C15.5989 16.77 15.7319 16.2341 15.6204 15.7192L15.4079 14.7502C15.29 14.032 14.6595 13.4943 13.9029 13.4666H6.09447C5.33785 13.4943 4.70734 14.032 4.58945 14.7502L4.37697 15.7192C4.26822 16.2314 4.40111 16.7636 4.73995 17.1727C5.01823 17.5118 5.4413 17.7118 5.89085 17.7168H14.1065Z" fill="#175EA0"/>
<path d="M16.9231 15.4726L16.63 15.5369L16.6314 15.5427L16.9231 15.4726ZM16.7107 14.5036L16.4156 14.5586L16.4176 14.5678L16.7107 14.5036ZM14.1078 19.0003V19.3004L14.1183 19.3001L14.1078 19.0003ZM5.89216 19.0003L5.88169 19.3003H5.89216V19.0003ZM3.61899 17.8732L3.85347 17.6861L3.61899 17.8732ZM3.07687 15.4726L3.36863 15.5427L3.36991 15.5369L3.07687 15.4726ZM3.28935 14.5036L3.58253 14.5679L3.58427 14.5585L3.28935 14.5036ZM6.09578 12.2V11.9L6.08978 11.9001L6.09578 12.2ZM13.9042 12.2L13.9102 11.9H13.9042V12.2ZM15.2574 17.1727H15.5574V16.3344L15.0255 16.9824L15.2574 17.1727ZM14.1065 17.7168V18.0168L14.1099 18.0167L14.1065 17.7168ZM15.2574 17.1812H14.9574V18.0122L15.4882 17.3729L15.2574 17.1812ZM15.6204 15.7192L15.9136 15.6557L15.9134 15.6549L15.6204 15.7192ZM15.4079 14.7502L15.1119 14.7988L15.1132 14.8066L15.1149 14.8144L15.4079 14.7502ZM13.9029 13.4666L13.9139 13.1666H13.9029V13.4666ZM6.09447 13.4666V13.1664L6.0835 13.1668L6.09447 13.4666ZM4.58945 14.7502L4.88248 14.8144L4.88419 14.8066L4.88548 14.7988L4.58945 14.7502ZM4.37697 15.7192L4.08393 15.6549L4.08351 15.6569L4.37697 15.7192ZM4.73995 17.1727L4.97184 16.9824L4.97101 16.9814L4.73995 17.1727ZM5.89085 17.7168L5.88751 18.0168H5.89085V17.7168ZM16.9231 15.4726L17.2162 15.4084L17.0037 14.4393L16.7107 14.5036L16.4176 14.5678L16.6301 15.5369L16.9231 15.4726ZM16.381 17.8732L16.6155 18.0604C17.217 17.3067 17.4381 16.3317 17.2148 15.4025L16.9231 15.4726L16.6314 15.5427C16.8108 16.2891 16.6344 17.0748 16.1465 17.6861L16.381 17.8732ZM14.1078 19.0003L14.1183 19.3001C15.0982 19.2659 16.0146 18.8133 16.6155 18.0604L16.381 17.8732L16.1465 17.6861C15.6581 18.2981 14.9073 18.6722 14.0974 18.7004L14.1078 19.0003ZM5.89216 19.0003V19.3003H14.1078V19.0003V18.7003H5.89216V19.0003ZM3.61899 17.8732L3.38451 18.0604C3.98539 18.8133 4.90182 19.2659 5.88169 19.3001L5.89216 19.0003L5.90263 18.7004C5.09271 18.6722 4.34191 18.2981 3.85347 17.6861L3.61899 17.8732ZM3.07687 15.4726L2.78518 15.4025C2.56187 16.3317 2.78303 17.3067 3.38451 18.0604L3.61899 17.8732L3.85347 17.6861C3.36563 17.0748 3.18918 16.2891 3.36857 15.5427L3.07687 15.4726ZM3.28935 14.5036L2.99631 14.4393L2.78384 15.4084L3.07687 15.4726L3.36991 15.5369L3.58239 14.5678L3.28935 14.5036ZM6.09578 12.2L6.08978 11.9001C4.56829 11.9305 3.26635 12.989 2.99442 14.4487L3.28935 14.5036L3.58427 14.5585C3.8011 13.3946 4.84804 12.5251 6.10179 12.5L6.09578 12.2ZM13.9042 12.2V11.9H6.09578V12.2V12.5H13.9042V12.2ZM16.7107 14.5036L17.0056 14.4487C16.7337 12.989 15.4317 11.9305 13.9102 11.9001L13.9042 12.2L13.8982 12.5C15.152 12.5251 16.1989 13.3946 16.4157 14.5585L16.7107 14.5036ZM15.2574 17.1727L15.0255 16.9824C14.8051 17.251 14.4667 17.4127 14.1032 17.4168L14.1065 17.7168L14.1099 18.0167C14.6455 18.0108 15.1532 17.7726 15.4893 17.3631L15.2574 17.1727ZM15.2574 17.1812H15.5574V17.1727H15.2574H14.9574V17.1812H15.2574ZM15.6204 15.7192L15.3272 15.7827C15.4189 16.206 15.3102 16.6481 15.0266 16.9896L15.2574 17.1812L15.4882 17.3729C15.8876 16.8919 16.045 16.2623 15.9136 15.6557L15.6204 15.7192ZM15.4079 14.7502L15.1149 14.8144L15.3274 15.7834L15.6204 15.7192L15.9134 15.6549L15.701 14.6859L15.4079 14.7502ZM13.9029 13.4666L13.8919 13.7664C14.5143 13.7892 15.0185 14.2297 15.1119 14.7988L15.4079 14.7502L15.704 14.7016C15.5616 13.8344 14.8047 13.1994 13.9139 13.1668L13.9029 13.4666ZM6.09447 13.4666V13.7666H13.9029V13.4666V13.1666H6.09447V13.4666ZM4.58945 14.7502L4.88548 14.7988C4.9789 14.2297 5.48308 13.7892 6.10544 13.7664L6.09447 13.4666L6.0835 13.1668C5.19263 13.1994 4.43577 13.8344 4.29341 14.7016L4.58945 14.7502ZM4.37697 15.7192L4.67001 15.7834L4.88248 14.8144L4.58945 14.7502L4.29641 14.6859L4.08393 15.6549L4.37697 15.7192ZM4.73995 17.1727L4.97101 16.9814C4.68962 16.6416 4.58103 16.2026 4.67043 15.7815L4.37697 15.7192L4.08351 15.6569C3.9554 16.2603 4.11259 16.8855 4.50889 17.3641L4.73995 17.1727ZM5.89085 17.7168L5.89419 17.4168C5.53073 17.4127 5.19228 17.251 4.97184 16.9824L4.73995 17.1727L4.50806 17.3631C4.84418 17.7726 5.35187 18.0108 5.88751 18.0167L5.89085 17.7168ZM14.1065 17.7168V17.4168H5.89085V17.7168V18.0168H14.1065V17.7168Z" fill="#175EA0"/>
<path fill-rule="evenodd" clip-rule="evenodd" d="M10.4601 10.5003H9.57117C7.6075 10.5003 6.01564 8.97803 6.01564 7.1002V4.85612C6.01327 4.09794 6.32717 3.37016 6.88779 2.83404C7.44841 2.29793 8.20945 1.99775 9.00229 2.00001H11.0289C11.8218 1.99775 12.5828 2.29793 13.1434 2.83404C13.7041 3.37016 14.018 4.09794 14.0156 4.85612V7.1002C14.0156 8.97803 12.4237 10.5003 10.4601 10.5003ZM9.00098 3.27441C8.08787 3.27441 7.34766 3.98228 7.34766 4.85547V7.09955C7.34766 8.2732 8.34257 9.22463 9.56986 9.22463H10.4587C11.686 9.22463 12.681 8.2732 12.681 7.09955V4.85547C12.681 4.43615 12.5068 4.034 12.1967 3.73749C11.8866 3.44099 11.4661 3.27441 11.0276 3.27441H9.00098Z" fill="#175EA0"/>
<path d="M6.01564 4.85612H6.31564L6.31564 4.85518L6.01564 4.85612ZM6.88779 2.83404L7.09513 3.05086L6.88779 2.83404ZM9.00229 2.00001L9.00143 2.30001H9.00229V2.00001ZM11.0289 2.00001V2.30001L11.0298 2.30001L11.0289 2.00001ZM13.1434 2.83404L12.9361 3.05086V3.05086L13.1434 2.83404ZM14.0156 4.85612L13.7156 4.85518V4.85612H14.0156ZM12.1967 3.73749L12.404 3.52068V3.52068L12.1967 3.73749ZM9.57117 10.5003V10.8003H10.4601V10.5003V10.2003H9.57117V10.5003ZM6.01564 7.1002H5.71564C5.71564 9.15621 7.4546 10.8003 9.57117 10.8003V10.5003V10.2003C7.76041 10.2003 6.31564 8.79985 6.31564 7.1002H6.01564ZM6.01564 4.85612H5.71564V7.1002H6.01564H6.31564V4.85612H6.01564ZM6.88779 2.83404L6.68045 2.61723C6.06196 3.20868 5.71301 4.01454 5.71564 4.85705L6.01564 4.85612L6.31564 4.85518C6.31353 4.18134 6.59238 3.53164 7.09513 3.05086L6.88779 2.83404ZM9.00229 2.00001L9.00314 1.70001C8.13468 1.69753 7.29847 2.02621 6.68045 2.61723L6.88779 2.83404L7.09513 3.05086C7.59835 2.56964 8.28423 2.29796 9.00143 2.30001L9.00229 2.00001ZM11.0289 2.00001V1.70001H9.00229V2.00001V2.30001H11.0289V2.00001ZM13.1434 2.83404L13.3508 2.61723C12.7328 2.02621 11.8965 1.69753 11.0281 1.70001L11.0289 2.00001L11.0298 2.30001C11.747 2.29796 12.4329 2.56964 12.9361 3.05086L13.1434 2.83404ZM14.0156 4.85612L14.3156 4.85705C14.3182 4.01454 13.9693 3.20868 13.3508 2.61723L13.1434 2.83404L12.9361 3.05086C13.4388 3.53164 13.7177 4.18134 13.7156 4.85518L14.0156 4.85612ZM14.0156 7.1002H14.3156V4.85612H14.0156H13.7156V7.1002H14.0156ZM10.4601 10.5003V10.8003C12.5766 10.8003 14.3156 9.15621 14.3156 7.1002H14.0156H13.7156C13.7156 8.79985 12.2708 10.2003 10.4601 10.2003V10.5003ZM7.34766 4.85547H7.64766C7.64766 4.16046 8.24078 3.57441 9.00098 3.57441V3.27441V2.97441C7.93497 2.97441 7.04766 3.8041 7.04766 4.85547H7.34766ZM7.34766 7.09955H7.64766V4.85547H7.34766H7.04766V7.09955H7.34766ZM9.56986 9.22463V8.92463C8.49548 8.92463 7.64766 8.09502 7.64766 7.09955H7.34766H7.04766C7.04766 8.45138 8.18966 9.52463 9.56986 9.52463V9.22463ZM10.4587 9.22463V8.92463H9.56986V9.22463V9.52463H10.4587V9.22463ZM12.681 7.09955H12.381C12.381 8.09502 11.5331 8.92463 10.4587 8.92463V9.22463V9.52463C11.8389 9.52463 12.981 8.45138 12.981 7.09955H12.681ZM12.681 4.85547H12.381V7.09955H12.681H12.981V4.85547H12.681ZM12.1967 3.73749L11.9894 3.95431C12.2418 4.1957 12.381 4.52015 12.381 4.85547H12.681H12.981C12.981 4.35215 12.7717 3.8723 12.404 3.52068L12.1967 3.73749ZM11.0276 3.27441V3.57441C11.3908 3.57441 11.7365 3.71249 11.9894 3.95431L12.1967 3.73749L12.404 3.52068C12.0368 3.16949 11.5415 2.97441 11.0276 2.97441V3.27441ZM9.00098 3.27441V3.57441H11.0276V3.27441V2.97441H9.00098V3.27441Z" fill="#175EA0"/>
</svg>
