<svg width="22" height="19" viewBox="0 0 22 19" fill="none" xmlns="http://www.w3.org/2000/svg">
<path d="M15.75 18.5H5.75C2.1 18.5 0 16.4 0 12.75V5.75C0 2.1 2.1 0 5.75 0H15.75C19.4 0 21.5 2.1 21.5 5.75V12.75C21.5 16.4 19.4 18.5 15.75 18.5ZM5.75 1.5C2.89 1.5 1.5 2.89 1.5 5.75V12.75C1.5 15.61 2.89 17 5.75 17H15.75C18.61 17 20 15.61 20 12.75V5.75C20 2.89 18.61 1.5 15.75 1.5H5.75Z" fill="white"/>
<path d="M10.7488 10.12C9.9088 10.12 9.0588 9.85997 8.4088 9.32997L5.2788 6.82997C4.9588 6.56997 4.89881 6.09997 5.1588 5.77997C5.41881 5.45997 5.88881 5.39997 6.20881 5.65997L9.3388 8.15997C10.0988 8.76997 11.3888 8.76997 12.1488 8.15997L15.2788 5.65997C15.5988 5.39997 16.0788 5.44997 16.3288 5.77997C16.5888 6.09997 16.5388 6.57997 16.2088 6.82997L13.0788 9.32997C12.4388 9.85997 11.5888 10.12 10.7488 10.12Z" fill="white"/>
</svg>
