<svg width="20" height="20" viewBox="0 0 20 20" fill="none" xmlns="http://www.w3.org/2000/svg">
<path fill-rule="evenodd" clip-rule="evenodd" d="M3.42733 10.0004C3.42705 8.61072 3.8671 7.2567 4.68429 6.13281C5.50148 5.00892 6.65376 4.17298 7.97563 3.74505C9.29751 3.31711 10.721 3.31921 12.0416 3.75102C13.3622 4.18284 14.512 5.02216 15.3259 6.14845L14.7374 6.7371C14.6573 6.81703 14.6027 6.91896 14.5805 7.02995C14.5584 7.14095 14.5697 7.25602 14.6131 7.36057C14.6564 7.46513 14.7298 7.55446 14.8239 7.61725C14.9181 7.68003 15.0288 7.71344 15.1419 7.71324H17.4275C17.579 7.71324 17.7243 7.65302 17.8315 7.54585C17.9387 7.43867 17.9989 7.2933 17.9989 7.14173V4.85571C17.9991 4.74253 17.9657 4.63183 17.9029 4.53766C17.8401 4.44349 17.7508 4.37008 17.6463 4.32674C17.5417 4.2834 17.4267 4.27208 17.3157 4.29422C17.2047 4.31636 17.1028 4.37095 17.0229 4.45108L16.3464 5.12889C15.3286 3.80306 13.9213 2.82929 12.322 2.34427C10.7227 1.85925 9.01169 1.88734 7.42915 2.42458C5.84661 2.96183 4.472 3.98126 3.49828 5.33978C2.52456 6.6983 2.00062 8.3277 2 9.99926C2 10.1887 2.07525 10.3704 2.20919 10.5044C2.34314 10.6384 2.52481 10.7136 2.71423 10.7136C2.90366 10.7136 3.08533 10.6384 3.21927 10.5044C3.35322 10.3704 3.42847 10.1887 3.42847 9.99926M9.99943 5.28434C10.3937 5.28434 10.7137 5.60438 10.7137 5.99872V6.63538C11.0879 6.68504 11.4411 6.83732 11.7342 7.07537C12.0273 7.31342 12.2487 7.62795 12.3741 7.98413C12.409 8.07337 12.4256 8.16873 12.423 8.26452C12.4203 8.36031 12.3983 8.45459 12.3585 8.54173C12.3186 8.62887 12.2616 8.7071 12.1909 8.77176C12.1202 8.83642 12.0372 8.88618 11.9468 8.91809C11.8565 8.95001 11.7606 8.96341 11.665 8.95751C11.5694 8.95161 11.4759 8.92652 11.3902 8.88374C11.3044 8.84097 11.2282 8.78137 11.166 8.70851C11.1037 8.63565 11.0568 8.551 11.0279 8.45962C10.9855 8.33872 10.9064 8.23404 10.8018 8.1601C10.6971 8.08616 10.5721 8.04663 10.444 8.04699H9.41204C9.29412 8.04585 9.17998 8.08859 9.0918 8.1669C9.00361 8.24522 8.94768 8.35352 8.93486 8.47077C8.92204 8.58803 8.95325 8.70586 9.02243 8.80139C9.0916 8.89691 9.19381 8.96332 9.30919 8.98769L10.8816 9.33059C11.353 9.43292 11.7731 9.69836 12.0679 10.0801C12.3628 10.4619 12.5134 10.9355 12.4934 11.4175C12.4733 11.8995 12.2838 12.359 11.9582 12.7149C11.6326 13.0708 11.1919 13.3004 10.7137 13.3631V13.9998C10.7137 14.1893 10.6384 14.371 10.5045 14.5049C10.3705 14.6389 10.1889 14.7142 9.99943 14.7142C9.81 14.7142 9.62833 14.6389 9.49439 14.5049C9.36044 14.371 9.28519 14.1893 9.28519 13.9998V13.3631C8.91094 13.3135 8.55773 13.1612 8.26466 12.9231C7.9716 12.6851 7.75012 12.3706 7.62474 12.0144C7.58982 11.9251 7.57321 11.8298 7.5759 11.734C7.57859 11.6382 7.60052 11.5439 7.64038 11.4568C7.68025 11.3696 7.73724 11.2914 7.80796 11.2268C7.87868 11.1621 7.96168 11.1123 8.05202 11.0804C8.14237 11.0485 8.23821 11.0351 8.33384 11.041C8.42947 11.0469 8.52293 11.072 8.60867 11.1148C8.69441 11.1575 8.77066 11.2171 8.8329 11.29C8.89513 11.3629 8.94208 11.4475 8.97093 11.5389C9.0134 11.6598 9.09244 11.7645 9.19708 11.8384C9.30172 11.9123 9.42677 11.9519 9.55489 11.9515H10.444C10.5963 11.951 10.7431 11.8943 10.8563 11.7923C10.9694 11.6903 11.0411 11.5502 11.0575 11.3987C11.0739 11.2472 11.0339 11.095 10.9452 10.9712C10.8565 10.8473 10.7252 10.7605 10.5765 10.7274L9.00521 10.3833C8.55706 10.2854 8.15931 10.029 7.88509 9.66124C7.61087 9.29345 7.47864 8.83899 7.5127 8.38146C7.54677 7.92393 7.74484 7.49408 8.0705 7.17096C8.39615 6.84785 8.82749 6.6532 9.28519 6.6228V5.99872C9.28519 5.60438 9.60517 5.28434 9.99943 5.28434ZM2.35312 15.6709C2.24863 15.6277 2.1593 15.5544 2.09644 15.4604C2.03358 15.3664 2.00002 15.2559 2 15.1428V12.8568C2 12.7052 2.0602 12.5598 2.16736 12.4527C2.27451 12.3455 2.41985 12.2853 2.57139 12.2853H4.85694C4.9701 12.2851 5.08077 12.3185 5.17492 12.3813C5.26907 12.444 5.34247 12.5334 5.3858 12.6379C5.42913 12.7425 5.44045 12.8576 5.41831 12.9686C5.39618 13.0796 5.3416 13.1815 5.26148 13.2614L4.67295 13.8489C5.48683 14.9752 6.63665 15.8145 7.95727 16.2463C9.27788 16.6782 10.7013 16.6803 12.0232 16.2523C13.3451 15.8244 14.4974 14.9884 15.3146 13.8646C16.1318 12.7407 16.5718 11.3866 16.5715 9.99697C16.5716 9.90316 16.5902 9.81028 16.6261 9.72363C16.6621 9.63699 16.7148 9.55828 16.7811 9.49199C16.8475 9.42571 16.9263 9.37315 17.013 9.33732C17.0997 9.30149 17.1925 9.28308 17.2863 9.28316C17.3801 9.28323 17.473 9.30179 17.5596 9.33776C17.6462 9.37373 17.7249 9.42641 17.7912 9.4928C17.8575 9.55919 17.91 9.63799 17.9458 9.72469C17.9817 9.81139 18.0001 9.9043 18 9.99811C17.9999 11.6701 17.4763 13.3 16.5026 14.659C15.5289 16.018 14.1541 17.0379 12.5712 17.5753C10.9883 18.1127 9.2769 18.1408 7.67727 17.6555C6.07763 17.1702 4.67014 16.196 3.65245 14.8696L2.97593 15.5474C2.89596 15.6273 2.7941 15.6817 2.68324 15.7036C2.57238 15.7256 2.4575 15.7142 2.35312 15.6709Z" fill="#0B0B0B"/>
<path d="M3.42733 10.0004C3.42705 8.61072 3.8671 7.2567 4.68429 6.13281C5.50148 5.00892 6.65376 4.17298 7.97563 3.74505C9.29751 3.31711 10.721 3.31921 12.0416 3.75102C13.3622 4.18284 14.512 5.02216 15.3259 6.14845L14.7374 6.7371C14.6573 6.81703 14.6027 6.91896 14.5805 7.02995C14.5584 7.14095 14.5697 7.25602 14.6131 7.36057C14.6564 7.46513 14.7298 7.55446 14.8239 7.61725C14.9181 7.68003 15.0288 7.71344 15.1419 7.71324H17.4275C17.579 7.71324 17.7243 7.65302 17.8315 7.54585C17.9387 7.43867 17.9989 7.2933 17.9989 7.14173V4.85571C17.9991 4.74253 17.9657 4.63184 17.9029 4.53766C17.8401 4.44349 17.7508 4.37008 17.6463 4.32674C17.5417 4.2834 17.4267 4.27208 17.3157 4.29422C17.2047 4.31636 17.1028 4.37095 17.0229 4.45108L16.3464 5.12889C15.3286 3.80306 13.9213 2.82929 12.322 2.34427C10.7227 1.85925 9.01169 1.88734 7.42915 2.42458C5.84661 2.96183 4.472 3.98126 3.49828 5.33978C2.52456 6.6983 2.00062 8.3277 2 9.99926C2 10.1887 2.07525 10.3704 2.20919 10.5044C2.34314 10.6384 2.52481 10.7136 2.71423 10.7136C2.90366 10.7136 3.08533 10.6384 3.21927 10.5044C3.35322 10.3704 3.42847 10.1887 3.42847 9.99926M9.99943 5.28434C10.3937 5.28434 10.7137 5.60438 10.7137 5.99872V6.63538C11.0879 6.68504 11.4411 6.83732 11.7342 7.07537C12.0273 7.31342 12.2487 7.62795 12.3741 7.98413C12.409 8.07337 12.4256 8.16873 12.423 8.26452C12.4203 8.36031 12.3983 8.45459 12.3585 8.54173C12.3186 8.62887 12.2616 8.7071 12.1909 8.77176C12.1202 8.83642 12.0372 8.88618 11.9468 8.91809C11.8565 8.95001 11.7606 8.96341 11.665 8.95751C11.5694 8.95161 11.4759 8.92652 11.3902 8.88374C11.3044 8.84097 11.2282 8.78137 11.166 8.70851C11.1037 8.63565 11.0568 8.551 11.0279 8.45962C10.9855 8.33872 10.9064 8.23404 10.8018 8.1601C10.6971 8.08616 10.5721 8.04663 10.444 8.04699H9.41204C9.29412 8.04585 9.17998 8.08859 9.0918 8.1669C9.00361 8.24522 8.94768 8.35352 8.93486 8.47077C8.92204 8.58803 8.95325 8.70586 9.02243 8.80139C9.0916 8.89692 9.19381 8.96332 9.30919 8.98769L10.8816 9.33059C11.353 9.43292 11.7731 9.69836 12.0679 10.0801C12.3628 10.4619 12.5134 10.9355 12.4934 11.4175C12.4733 11.8995 12.2838 12.359 11.9582 12.7149C11.6326 13.0708 11.1919 13.3004 10.7137 13.3631V13.9998C10.7137 14.1893 10.6384 14.371 10.5045 14.5049C10.3705 14.6389 10.1889 14.7142 9.99943 14.7142C9.81 14.7142 9.62833 14.6389 9.49439 14.5049C9.36044 14.371 9.28519 14.1893 9.28519 13.9998V13.3631C8.91094 13.3135 8.55773 13.1612 8.26466 12.9231C7.9716 12.6851 7.75012 12.3706 7.62474 12.0144C7.58982 11.9251 7.57321 11.8298 7.5759 11.734C7.57859 11.6382 7.60052 11.5439 7.64038 11.4568C7.68025 11.3696 7.73724 11.2914 7.80796 11.2268C7.87868 11.1621 7.96168 11.1123 8.05202 11.0804C8.14237 11.0485 8.23821 11.0351 8.33384 11.041C8.42947 11.0469 8.52293 11.072 8.60867 11.1148C8.69441 11.1575 8.77066 11.2171 8.8329 11.29C8.89513 11.3629 8.94208 11.4475 8.97093 11.5389C9.0134 11.6598 9.09244 11.7645 9.19708 11.8384C9.30172 11.9123 9.42677 11.9519 9.55489 11.9515H10.444C10.5963 11.951 10.7431 11.8943 10.8563 11.7923C10.9694 11.6903 11.0411 11.5502 11.0575 11.3987C11.0739 11.2472 11.0339 11.095 10.9452 10.9712C10.8565 10.8473 10.7252 10.7605 10.5765 10.7274L9.00521 10.3833C8.55706 10.2854 8.15931 10.029 7.88509 9.66124C7.61087 9.29345 7.47864 8.839 7.5127 8.38146C7.54677 7.92393 7.74484 7.49408 8.0705 7.17096C8.39615 6.84785 8.82749 6.6532 9.28519 6.6228V5.99872C9.28519 5.60438 9.60517 5.28434 9.99943 5.28434ZM2.35312 15.6709C2.24863 15.6277 2.1593 15.5544 2.09644 15.4604C2.03358 15.3664 2.00002 15.2559 2 15.1428V12.8568C2 12.7052 2.0602 12.5598 2.16736 12.4527C2.27451 12.3455 2.41985 12.2853 2.57139 12.2853H4.85694C4.9701 12.2851 5.08077 12.3185 5.17492 12.3813C5.26907 12.444 5.34247 12.5334 5.3858 12.6379C5.42913 12.7425 5.44045 12.8576 5.41831 12.9686C5.39618 13.0796 5.3416 13.1815 5.26148 13.2614L4.67295 13.8489C5.48683 14.9752 6.63665 15.8145 7.95727 16.2463C9.27788 16.6782 10.7013 16.6803 12.0232 16.2523C13.3451 15.8244 14.4974 14.9884 15.3146 13.8646C16.1318 12.7407 16.5718 11.3866 16.5715 9.99697C16.5716 9.90316 16.5902 9.81028 16.6261 9.72363C16.6621 9.63699 16.7148 9.55828 16.7811 9.49199C16.8475 9.42571 16.9263 9.37315 17.013 9.33732C17.0996 9.30149 17.1925 9.28308 17.2863 9.28316C17.3801 9.28323 17.473 9.30179 17.5596 9.33776C17.6462 9.37373 17.7249 9.42641 17.7912 9.4928C17.8575 9.55919 17.91 9.63799 17.9458 9.72469C17.9817 9.81139 18.0001 9.9043 18 9.99811C17.9999 11.6701 17.4763 13.3 16.5026 14.659C15.5289 16.018 14.1541 17.0379 12.5712 17.5753C10.9883 18.1127 9.2769 18.1408 7.67727 17.6555C6.07763 17.1702 4.67014 16.196 3.65245 14.8696L2.97593 15.5474C2.89596 15.6273 2.7941 15.6817 2.68324 15.7036C2.57238 15.7256 2.4575 15.7142 2.35312 15.6709Z" stroke="#0B0B0B" stroke-width="0.2"/>
</svg>
