<svg width="16" height="20" viewBox="0 0 16 20" fill="none" xmlns="http://www.w3.org/2000/svg">
<path fill-rule="evenodd" clip-rule="evenodd" d="M15.4868 14.71L15.7268 15.85C15.9543 16.8356 15.7297 17.8713 15.1145 18.6742C14.4993 19.4771 13.5577 19.9633 12.5468 20H3.26683C2.25601 19.9633 1.3144 19.4771 0.699179 18.6742C0.0839582 17.8713 -0.140601 16.8356 0.0868326 15.85L0.326833 14.71C0.602868 13.1668 1.92945 12.0327 3.49683 12H12.3168C13.8842 12.0327 15.2108 13.1668 15.4868 14.71ZM12.5468 18.49C13.0546 18.4841 13.5325 18.2489 13.8468 17.85V17.86C14.2325 17.3762 14.3828 16.7458 14.2568 16.14L14.0168 15C13.8837 14.1552 13.1715 13.5226 12.3168 13.49H3.49684C2.6422 13.5226 1.93 14.1552 1.79684 15L1.55684 16.14C1.43399 16.7426 1.5841 17.3687 1.96684 17.85C2.28117 18.2489 2.75905 18.4841 3.26684 18.49H12.5468Z" fill="white"/>
<path fill-rule="evenodd" clip-rule="evenodd" d="M8.40689 10H7.40689C5.19775 10 3.40689 8.20917 3.40689 6.00003V3.36003C3.40422 2.46809 3.75737 1.61191 4.38807 0.981207C5.01877 0.350506 5.87495 -0.0026367 6.76689 2.98159e-05H9.04689C9.93883 -0.0026367 10.795 0.350506 11.4257 0.981207C12.0564 1.61191 12.4096 2.46809 12.4069 3.36003V6.00003C12.4069 8.20917 10.616 10 8.40689 10ZM6.76689 1.50003C5.73964 1.50003 4.90689 2.33278 4.90689 3.36003V6.00003C4.90689 7.38074 6.02618 8.50003 7.40689 8.50003H8.40689C9.7876 8.50003 10.9069 7.38074 10.9069 6.00003V3.36003C10.9069 2.86673 10.7109 2.39363 10.3621 2.04481C10.0133 1.69599 9.54019 1.50003 9.04689 1.50003H6.76689Z" fill="white"/>
</svg>
